<svg width="1024" height="768" viewBox="0 0 1024 768" fill="none" xmlns="http://www.w3.org/2000/svg">
<rect width="1024" height="768" fill="#1E1E1E"/>
<g id="Plugin icon - 1">
<rect width="1024" height="768" fill="white"/>
<path id="always &#38; forever." d="M372.024 407.064C371.043 407.064 370.552 406.424 370.552 405.144C370.552 404.12 370.936 403.011 371.704 401.816C373.496 399.128 375.437 397.315 377.528 396.376C378.424 395.949 379.299 395.736 380.152 395.736C380.579 395.736 381.048 395.864 381.56 396.12C382.072 396.333 382.328 396.653 382.328 397.08C382.328 397.293 382.179 397.421 381.88 397.464C381.709 397.507 381.581 397.549 381.496 397.592C381.453 397.635 381.411 397.677 381.368 397.72C380.387 399.555 379.896 401.261 379.896 402.84C379.896 404.845 380.685 405.848 382.264 405.848C383.928 405.848 385.997 404.547 388.472 401.944C388.685 401.688 388.856 401.56 388.984 401.56C389.112 401.56 389.176 401.645 389.176 401.816C389.176 401.987 389.112 402.179 388.984 402.392C386.125 405.464 383.629 407 381.496 407C380.472 407 379.64 406.552 379 405.656C378.317 404.717 377.955 403.587 377.912 402.264C376.845 403.672 375.779 404.845 374.712 405.784C373.603 406.637 372.707 407.064 372.024 407.064ZM373.368 405.144C373.837 405.144 374.456 404.824 375.224 404.184C375.907 403.587 376.483 403.011 376.952 402.456C377.421 401.859 377.763 401.261 377.976 400.664C378.061 399.939 378.189 399.299 378.36 398.744C378.573 398.147 378.787 397.613 379 397.144C376.781 397.101 374.883 398.637 373.304 401.752C372.835 402.605 372.6 403.373 372.6 404.056C372.6 404.781 372.856 405.144 373.368 405.144ZM391.907 407C389.902 406.915 388.899 405.72 388.899 403.416C388.899 402.819 388.963 402.093 389.091 401.24C389.262 400.387 389.496 399.405 389.795 398.296C390.222 396.845 390.819 395.245 391.587 393.496C392.355 391.704 393.315 389.763 394.467 387.672C397.411 382.211 399.928 379.48 402.019 379.48C403.171 379.48 403.747 380.163 403.747 381.528C403.747 382.125 403.619 382.787 403.363 383.512C402.168 387.309 398.606 391.747 392.675 396.824C391.438 399.085 390.819 401.325 390.819 403.544C390.819 405.251 391.374 406.104 392.483 406.104C393.208 406.104 394.104 405.784 395.171 405.144C395.768 404.803 396.387 404.376 397.027 403.864C397.667 403.309 398.328 402.669 399.011 401.944C399.267 401.645 399.48 401.496 399.651 401.496C399.822 401.539 399.907 401.645 399.907 401.816C399.907 401.987 399.822 402.157 399.651 402.328C396.664 405.528 394.083 407.085 391.907 407ZM393.187 395.544C394.04 394.691 394.872 393.795 395.683 392.856C396.536 391.917 397.368 390.915 398.179 389.848C399.118 388.611 399.907 387.459 400.547 386.392C401.23 385.325 401.742 384.323 402.083 383.384C402.382 382.616 402.531 381.976 402.531 381.464C402.531 380.781 402.296 380.44 401.827 380.44C401.102 380.44 400.291 381.229 399.395 382.808C398.2 384.813 397.091 386.883 396.067 389.016C395.043 391.149 394.083 393.325 393.187 395.544ZM400.363 409.176C399.083 409.176 398.443 408.28 398.443 406.488C398.443 406.147 398.486 405.784 398.571 405.4C398.614 404.973 398.678 404.547 398.763 404.12C399.105 402.84 399.681 401.539 400.491 400.216C400.833 399.619 401.195 399.107 401.579 398.68C401.963 398.211 402.347 397.805 402.731 397.464C403.329 396.952 403.862 396.696 404.331 396.696C404.843 396.696 405.099 396.888 405.099 397.272C405.099 397.357 405.057 397.485 404.971 397.656C404.374 398.253 403.755 399.043 403.115 400.024C402.475 400.963 401.835 402.115 401.195 403.48C400.427 405.059 400.043 406.275 400.043 407.128C400.043 407.811 400.321 408.152 400.875 408.152C401.985 408.152 403.286 407.213 404.779 405.336C405.505 404.355 406.145 403.331 406.699 402.264C407.297 401.155 407.851 400.067 408.363 399C408.577 398.744 408.94 398.616 409.451 398.616C410.134 398.616 410.476 398.872 410.476 399.384C409.793 400.621 409.281 401.752 408.939 402.776C408.641 403.544 408.491 404.227 408.491 404.824C408.491 405.592 408.747 405.976 409.259 405.976C409.771 405.976 410.39 405.571 411.115 404.76C411.841 403.907 412.438 402.861 412.908 401.624C412.566 400.856 412.396 400.067 412.396 399.256C412.396 396.952 412.95 395.8 414.059 395.8C414.401 395.8 414.678 395.971 414.892 396.312C415.105 396.611 415.212 397.016 415.212 397.528C415.212 398.936 414.764 400.088 413.868 400.984C414.038 401.667 414.358 402.243 414.827 402.712C415.34 403.139 415.916 403.352 416.556 403.352C417.451 403.352 418.326 402.861 419.18 401.88C419.521 401.539 419.734 401.475 419.819 401.688C419.948 401.901 419.884 402.115 419.628 402.328C418.561 403.395 417.43 403.928 416.236 403.928C414.998 403.928 414.017 403.373 413.292 402.264C412.694 403.8 411.948 405.016 411.052 405.912C410.198 406.765 409.387 407.192 408.62 407.192C407.425 407.192 406.827 406.317 406.827 404.568C406.827 404.397 406.827 404.227 406.827 404.056C406.827 403.843 406.849 403.651 406.891 403.48C406.849 403.523 406.678 403.736 406.379 404.12C406.123 404.461 405.761 404.995 405.291 405.72C404.609 406.701 403.798 407.512 402.859 408.152C401.921 408.835 401.089 409.176 400.363 409.176ZM419.859 407.064C418.878 407.064 418.387 406.424 418.387 405.144C418.387 404.12 418.771 403.011 419.539 401.816C421.331 399.128 423.272 397.315 425.363 396.376C426.259 395.949 427.134 395.736 427.987 395.736C428.414 395.736 428.883 395.864 429.395 396.12C429.907 396.333 430.163 396.653 430.163 397.08C430.163 397.293 430.014 397.421 429.715 397.464C429.544 397.507 429.416 397.549 429.331 397.592C429.288 397.635 429.246 397.677 429.203 397.72C428.222 399.555 427.731 401.261 427.731 402.84C427.731 404.845 428.52 405.848 430.099 405.848C431.763 405.848 433.832 404.547 436.307 401.944C436.52 401.688 436.691 401.56 436.819 401.56C436.947 401.56 437.011 401.645 437.011 401.816C437.011 401.987 436.947 402.179 436.819 402.392C433.96 405.464 431.464 407 429.331 407C428.307 407 427.475 406.552 426.835 405.656C426.152 404.717 425.79 403.587 425.747 402.264C424.68 403.672 423.614 404.845 422.547 405.784C421.438 406.637 420.542 407.064 419.859 407.064ZM421.203 405.144C421.672 405.144 422.291 404.824 423.059 404.184C423.742 403.587 424.318 403.011 424.787 402.456C425.256 401.859 425.598 401.261 425.811 400.664C425.896 399.939 426.024 399.299 426.195 398.744C426.408 398.147 426.622 397.613 426.835 397.144C424.616 397.101 422.718 398.637 421.139 401.752C420.67 402.605 420.435 403.373 420.435 404.056C420.435 404.781 420.691 405.144 421.203 405.144ZM422.718 428.376C420.755 428.376 419.198 427.864 418.046 426.84C416.851 425.859 416.254 424.579 416.254 423C416.254 421.165 417.171 419.267 419.006 417.304C421.054 415.128 424.062 413.165 428.03 411.416C431.955 409.667 437.054 407.981 443.326 406.36C443.795 404.611 444.371 401.987 445.054 398.488C443.219 402.072 441.235 404.632 439.102 406.168C438.419 406.637 437.843 406.872 437.374 406.872C436.521 406.872 436.094 406.317 436.094 405.208C436.094 403.672 437.054 401.155 438.974 397.656C439.102 397.4 439.358 397.165 439.742 396.952C440.169 396.696 440.51 396.568 440.766 396.568C441.022 396.568 441.129 396.653 441.086 396.824L441.022 397.144C440.723 397.613 440.361 398.275 439.934 399.128C439.507 399.981 439.017 401.005 438.462 402.2C438.078 403.139 437.886 403.928 437.886 404.568C437.886 405.165 438.078 405.464 438.462 405.464C438.846 405.464 439.486 404.995 440.382 404.056C441.577 402.904 443.241 400.301 445.374 396.248C445.545 395.821 445.929 395.608 446.526 395.608C447.123 395.608 447.422 395.885 447.422 396.44C447.422 397.379 447.294 398.637 447.038 400.216C446.782 401.752 446.377 403.608 445.822 405.784C446.121 405.699 446.398 405.656 446.654 405.656C446.91 405.656 447.166 405.656 447.422 405.656C448.361 405.656 449.257 405.805 450.11 406.104C451.006 406.403 451.454 406.936 451.454 407.704C451.454 408.387 451.07 409.091 450.302 409.816C450.174 409.944 450.067 410.008 449.982 410.008C449.811 410.008 449.726 409.944 449.726 409.816C449.726 409.688 449.769 409.581 449.854 409.496C450.409 408.941 450.686 408.451 450.686 408.024C450.686 407.171 449.811 406.744 448.062 406.744C447.763 406.744 447.401 406.765 446.974 406.808C446.547 406.851 446.057 406.915 445.502 407C443.881 413.016 441.278 417.816 437.694 421.4C435.689 423.448 433.406 425.091 430.846 426.328C428.03 427.693 425.321 428.376 422.718 428.376ZM423.998 427.352C427.411 427.352 430.846 425.816 434.302 422.744C438.355 419.032 441.299 413.955 443.134 407.512C441.683 407.896 440.403 408.237 439.294 408.536C438.185 408.877 437.267 409.176 436.542 409.432C434.963 409.901 433.491 410.392 432.126 410.904C430.718 411.416 429.438 411.928 428.286 412.44C425.001 413.933 422.505 415.683 420.798 417.688C419.305 419.437 418.558 421.165 418.558 422.872C418.558 424.28 419.07 425.368 420.094 426.136C421.075 426.947 422.377 427.352 423.998 427.352ZM455.806 407.384C455.166 407.384 454.59 407.192 454.078 406.808C453.609 406.424 453.31 405.955 453.182 405.4C453.011 404.845 452.926 404.376 452.926 403.992C452.926 403.736 452.969 403.565 453.054 403.48C453.054 403.139 453.203 402.968 453.502 402.968C453.587 402.968 453.651 402.989 453.694 403.032C454.462 403.971 455.465 404.675 456.702 405.144C456.702 404.76 456.638 404.355 456.51 403.928C456.339 403.288 456.041 402.691 455.614 402.136C454.761 400.984 454.334 399.747 454.334 398.424C454.334 395.352 456.211 393.112 459.966 391.704C460.99 391.363 461.886 391.192 462.654 391.192C464.318 391.192 465.15 391.875 465.15 393.24C465.15 394.093 464.873 394.925 464.318 395.736C464.062 396.077 463.849 396.269 463.678 396.312C463.507 396.355 463.422 396.269 463.422 396.056C463.422 395.885 463.486 395.715 463.614 395.544C463.913 394.989 464.062 394.52 464.062 394.136C464.062 393.496 463.614 393.176 462.718 393.176C462.633 393.176 462.526 393.176 462.398 393.176C462.27 393.176 462.142 393.197 462.014 393.24C459.113 393.752 457.15 395.437 456.126 398.296C455.998 398.723 455.934 399.128 455.934 399.512C455.934 400.195 456.254 401.091 456.894 402.2C457.577 403.309 457.939 404.184 457.982 404.824C457.982 405.165 457.961 405.4 457.918 405.528C458.174 405.571 458.43 405.613 458.686 405.656C458.942 405.656 459.198 405.656 459.454 405.656C460.222 405.656 460.947 405.571 461.63 405.4C462.739 405.101 463.785 404.675 464.766 404.12C465.747 403.523 466.643 402.755 467.454 401.816C467.582 401.645 467.731 401.56 467.902 401.56C468.073 401.56 468.158 401.667 468.158 401.88C468.158 402.093 468.073 402.285 467.902 402.456C465.641 404.589 463.507 405.848 461.502 406.232C460.734 406.36 460.009 406.424 459.326 406.424C459.027 406.424 458.729 406.424 458.43 406.424C458.174 406.381 457.918 406.339 457.662 406.296C457.193 407.021 456.574 407.384 455.806 407.384ZM455.422 406.296C455.763 406.296 456.041 406.189 456.254 405.976C455.23 405.677 454.334 405.144 453.566 404.376C453.566 404.931 453.758 405.4 454.142 405.784C454.569 406.125 454.995 406.296 455.422 406.296ZM492.802 416.632C492.077 416.632 491.383 416.515 490.722 416.28C490.082 416.045 489.549 415.715 489.122 415.288C488.973 415.117 488.834 414.936 488.706 414.744C488.578 414.573 488.461 414.381 488.354 414.168C488.29 414.04 488.247 413.912 488.226 413.784C488.205 413.656 488.194 413.539 488.194 413.432C488.194 413.091 488.247 412.92 488.354 412.92C488.397 412.92 488.471 413.005 488.578 413.176C488.663 413.347 488.77 413.528 488.898 413.72C489.026 413.912 489.175 414.072 489.346 414.2C489.794 414.52 490.263 414.776 490.754 414.968C491.266 415.16 491.789 415.256 492.322 415.256C492.791 415.256 493.25 415.171 493.698 415C494.167 414.829 494.615 414.552 495.042 414.168C495.959 413.379 496.749 412.44 497.41 411.352C498.071 410.264 498.669 409.059 499.202 407.736C498.157 407.928 497.133 408.024 496.13 408.024C494.871 408.024 493.73 407.853 492.706 407.512C491.703 407.171 490.903 406.637 490.306 405.912C489.73 405.165 489.442 404.216 489.442 403.064C489.442 402.317 489.602 401.539 489.922 400.728C490.242 399.896 490.711 399.085 491.33 398.296C490.391 398.04 489.613 397.624 488.994 397.048C488.397 396.451 488.098 395.629 488.098 394.584C488.098 393.645 488.429 392.717 489.09 391.8C489.751 390.861 490.69 390.083 491.906 389.464C493.122 388.845 494.551 388.536 496.194 388.536C496.642 388.536 497.111 388.589 497.602 388.696C498.114 388.781 498.583 388.899 499.01 389.048C499.437 389.176 499.746 389.304 499.938 389.432C500.237 389.603 500.386 389.773 500.386 389.944C500.386 390.029 500.343 390.093 500.258 390.136C500.173 390.157 500.066 390.136 499.938 390.072C499.597 389.901 499.106 389.741 498.466 389.592C497.826 389.443 497.229 389.368 496.674 389.368C495.266 389.368 494.061 389.645 493.058 390.2C492.077 390.733 491.33 391.405 490.818 392.216C490.306 393.027 490.05 393.827 490.05 394.616C490.05 395.235 490.21 395.8 490.53 396.312C490.871 396.824 491.383 397.197 492.066 397.432C492.706 396.749 493.453 396.109 494.306 395.512C495.181 394.893 496.151 394.339 497.218 393.848C497.538 393.699 498.05 393.464 498.754 393.144C499.458 392.803 500.258 392.408 501.154 391.96C502.05 391.512 502.946 391.064 503.842 390.616C504.141 389.4 504.525 388.28 504.994 387.256C505.485 386.211 506.093 385.379 506.818 384.76C507.565 384.12 508.461 383.8 509.506 383.8C510.103 383.8 510.53 383.949 510.786 384.248C511.063 384.525 511.202 384.877 511.202 385.304C511.202 386.051 510.914 386.733 510.338 387.352C509.783 387.971 509.037 388.557 508.098 389.112C507.181 389.645 506.178 390.189 505.09 390.744C504.834 391.384 504.589 392.077 504.354 392.824C504.119 393.571 503.895 394.371 503.682 395.224C505.133 394.669 506.519 394.179 507.842 393.752C509.165 393.325 510.359 393.112 511.426 393.112C512.429 393.112 513.197 393.336 513.73 393.784C514.285 394.232 514.562 394.861 514.562 395.672C514.562 396.483 514.274 397.464 513.698 398.616C513.015 400.003 511.991 401.283 510.626 402.456C509.261 403.608 507.714 404.611 505.986 405.464C504.279 406.296 502.541 406.936 500.77 407.384C500.237 409.133 499.618 410.723 498.914 412.152C498.231 413.581 497.399 414.68 496.418 415.448C495.906 415.853 495.33 416.152 494.69 416.344C494.071 416.536 493.442 416.632 492.802 416.632ZM505.538 389.688C506.391 389.219 507.17 388.739 507.874 388.248C508.599 387.736 509.175 387.213 509.602 386.68C510.05 386.125 510.274 385.549 510.274 384.952C510.274 384.611 510.103 384.44 509.762 384.44C509.655 384.44 509.495 384.472 509.282 384.536C509.069 384.6 508.877 384.717 508.706 384.888C508.322 385.229 507.842 385.795 507.266 386.584C506.711 387.373 506.135 388.408 505.538 389.688ZM493.442 397.688H493.698C495.17 397.688 496.663 397.475 498.178 397.048C499.714 396.6 501.218 396.109 502.69 395.576C502.861 394.893 503.021 394.211 503.17 393.528C503.319 392.845 503.469 392.173 503.618 391.512C502.765 391.939 501.933 392.355 501.122 392.76C500.311 393.165 499.597 393.517 498.978 393.816C498.359 394.093 497.901 394.296 497.602 394.424C496.706 394.829 495.906 395.32 495.202 395.896C494.519 396.451 493.933 397.048 493.442 397.688ZM500.994 406.616C502.573 406.232 504.141 405.645 505.698 404.856C507.277 404.045 508.695 403.085 509.954 401.976C511.234 400.867 512.205 399.661 512.866 398.36C513.229 397.635 513.41 396.984 513.41 396.408C513.41 395.811 513.207 395.352 512.802 395.032C512.418 394.712 511.874 394.552 511.17 394.552C510.167 394.552 508.983 394.776 507.618 395.224C506.274 395.651 504.845 396.131 503.33 396.664C502.989 398.243 502.626 399.896 502.242 401.624C501.879 403.331 501.463 404.995 500.994 406.616ZM497.378 407.096C498.082 407.096 498.797 407.032 499.522 406.904C500.034 405.475 500.514 403.928 500.962 402.264C501.41 400.6 501.869 398.84 502.338 396.984C501.015 397.432 499.682 397.827 498.338 398.168C496.994 398.509 495.693 398.68 494.434 398.68C493.901 398.68 493.357 398.648 492.802 398.584C492.055 399.885 491.682 401.155 491.682 402.392C491.682 403.48 491.927 404.376 492.418 405.08C492.93 405.763 493.613 406.275 494.466 406.616C495.341 406.936 496.311 407.096 497.378 407.096ZM525.516 420.376C523.98 420.376 522.721 419.928 521.74 419.032C520.886 418.179 520.46 417.176 520.46 416.024C520.46 414.829 520.886 413.805 521.74 412.952C521.868 412.781 521.996 412.696 522.124 412.696C522.294 412.696 522.38 412.781 522.38 412.952C522.38 413.037 522.316 413.187 522.188 413.4C521.59 413.997 521.292 414.808 521.292 415.832C521.292 416.813 521.612 417.667 522.252 418.392C522.934 419.203 523.916 419.608 525.196 419.608C527.158 419.608 529.121 418.819 531.084 417.24C532.065 416.472 533.004 415.555 533.9 414.488C534.753 413.464 535.585 412.291 536.396 410.968C537.761 408.621 539.062 406.296 540.3 403.992C541.494 401.688 542.625 399.427 543.692 397.208L541.964 397.272C541.068 397.187 540.598 396.931 540.556 396.504V396.44C540.556 396.099 540.854 395.928 541.452 395.928H544.268C545.206 393.88 545.974 392.195 546.572 390.872C547.212 389.507 547.702 388.504 548.044 387.864C549.878 384.323 551.564 381.848 553.1 380.44C553.868 379.672 554.572 379.288 555.212 379.288C556.406 379.288 557.004 380.227 557.004 382.104C557.004 383 556.769 383.96 556.3 384.984C554.806 388.013 551.649 391.64 546.828 395.864C547.681 395.864 548.449 395.885 549.132 395.928C549.814 395.928 550.412 395.928 550.924 395.928C551.436 395.928 551.862 395.928 552.204 395.928C552.588 395.885 552.865 395.864 553.036 395.864C553.42 395.992 553.612 396.163 553.612 396.376C553.612 396.76 553.142 397.016 552.204 397.144C551.734 397.229 549.58 397.293 545.74 397.336C544.076 400.664 541.516 405.528 538.06 411.928C536.481 414.659 534.774 416.685 532.94 418.008C530.849 419.587 528.374 420.376 525.516 420.376ZM546.636 395.352C550.646 391.597 553.462 387.928 555.084 384.344C555.596 383.235 555.852 382.317 555.852 381.592C555.852 381.08 555.724 380.824 555.468 380.824C554.956 380.824 554.081 381.848 552.844 383.896C551.905 385.603 550.902 387.416 549.836 389.336C548.812 391.213 547.745 393.219 546.636 395.352ZM554.078 408.152C552.329 408.152 551.454 407.128 551.454 405.08C551.454 403.544 551.838 401.752 552.606 399.704C552.564 399.491 552.521 399.277 552.478 399.064C552.478 398.808 552.478 398.552 552.478 398.296C552.478 396.035 553.566 394.819 555.742 394.648C556.297 393.965 556.809 393.624 557.278 393.624C558.046 393.624 558.43 393.837 558.43 394.264C558.43 394.392 558.366 394.52 558.238 394.648L558.046 394.84C559.028 395.139 559.838 395.693 560.478 396.504C561.118 397.315 561.438 398.189 561.438 399.128C561.438 400.792 560.99 402.435 560.094 404.056L559.966 404.184C562.484 404.099 564.51 403.267 566.046 401.688C566.174 401.56 566.324 401.496 566.494 401.496C566.622 401.496 566.686 401.603 566.686 401.816C566.686 402.029 566.558 402.243 566.302 402.456C564.297 404.205 561.993 405.08 559.39 405.08C558.665 405.976 557.812 406.701 556.83 407.256C555.849 407.853 554.932 408.152 554.078 408.152ZM558.686 404.12C559.625 402.371 560.094 400.685 560.094 399.064C560.094 398.083 559.86 397.251 559.39 396.568C558.921 395.885 558.281 395.501 557.47 395.416C556.19 396.824 555.166 398.467 554.398 400.344C554.91 402.563 556.34 403.821 558.686 404.12ZM554.974 407C556.169 407 557.236 406.339 558.174 405.016C556.212 404.76 554.718 403.949 553.694 402.584C553.609 403.011 553.524 403.416 553.438 403.8C553.396 404.184 553.374 404.525 553.374 404.824C553.374 406.275 553.908 407 554.974 407ZM575.053 408.024C573.133 408.024 572.173 406.979 572.173 404.888C572.173 403.437 572.792 401.581 574.029 399.32C573.389 399.405 572.77 399.192 572.173 398.68C571.618 398.168 571.341 397.571 571.341 396.888C570.232 398.979 568.568 400.941 566.349 402.776C566.178 402.947 565.965 403.032 565.709 403.032C565.538 403.032 565.453 402.968 565.453 402.84C565.453 402.669 565.581 402.499 565.837 402.328C567.757 400.579 569.4 398.424 570.765 395.864L570.637 395.224C570.594 395.011 570.552 394.819 570.509 394.648C570.509 394.435 570.509 394.243 570.509 394.072C570.509 393.048 570.786 392.237 571.341 391.64C571.853 391.085 572.429 390.808 573.069 390.808C573.88 390.808 574.285 391.235 574.285 392.088C574.285 393.155 573.581 394.52 572.173 396.184V396.312C572.173 397.037 572.6 397.4 573.453 397.4C573.794 397.4 574.2 397.315 574.669 397.144C575.181 397.016 575.544 396.952 575.757 396.952C576.525 396.952 576.909 397.357 576.909 398.168C576.909 398.467 576.802 398.787 576.589 399.128C576.29 399.555 575.906 400.323 575.437 401.432C574.882 402.627 574.562 403.501 574.477 404.056C574.434 404.227 574.392 404.397 574.349 404.568C574.349 404.739 574.349 404.909 574.349 405.08C574.349 406.189 574.861 406.744 575.885 406.744C577.165 406.744 578.786 406.168 580.749 405.016C581.602 404.547 582.37 404.056 583.053 403.544C583.736 403.032 584.354 402.499 584.909 401.944C585.165 401.688 585.378 401.56 585.549 401.56C585.677 401.56 585.741 401.645 585.741 401.816C585.741 402.029 585.613 402.264 585.357 402.52C582.37 405.08 579.853 406.723 577.805 407.448C576.738 407.832 575.821 408.024 575.053 408.024ZM588.811 407.576C586.336 407.576 585.099 406.211 585.099 403.48C585.099 402.541 585.44 401.368 586.123 399.96C586.806 398.509 587.638 397.315 588.619 396.376C589.814 395.267 590.902 394.712 591.883 394.712C593.206 394.712 593.867 395.373 593.867 396.696C593.867 397.549 593.526 398.403 592.843 399.256C591.563 400.792 589.771 401.837 587.467 402.392C587.424 402.691 587.382 402.968 587.339 403.224C587.339 403.437 587.339 403.651 587.339 403.864C587.339 405.656 588.171 406.552 589.835 406.552C591.158 406.552 592.822 405.997 594.827 404.888C595.68 404.419 596.448 403.928 597.131 403.416C597.814 402.904 598.39 402.413 598.859 401.944C599.371 401.347 599.627 401.304 599.627 401.816C599.627 402.029 599.542 402.221 599.371 402.392C598.902 402.947 598.283 403.523 597.515 404.12C596.79 404.675 595.894 405.229 594.827 405.784C592.566 406.979 590.56 407.576 588.811 407.576ZM587.723 401.688C589.814 401.005 591.243 399.981 592.011 398.616C592.523 397.763 592.779 397.037 592.779 396.44C592.779 395.971 592.63 395.736 592.331 395.736C591.99 395.736 591.52 396.056 590.923 396.696C590.326 397.293 589.728 398.04 589.131 398.936C588.576 399.832 588.107 400.749 587.723 401.688ZM602.055 407.256C600.818 407 600.199 406.019 600.199 404.312C600.199 403.203 600.476 402.115 601.031 401.048L600.647 401.432L599.111 402.84C598.983 403.011 598.855 403.096 598.727 403.096C598.514 403.096 598.407 402.989 598.407 402.776C598.492 402.563 598.642 402.349 598.855 402.136C599.666 401.411 600.434 400.664 601.159 399.896C601.884 399.085 602.567 398.253 603.207 397.4C603.548 397.016 603.932 396.824 604.359 396.824C604.871 396.824 605.127 397.037 605.127 397.464C605.127 397.677 604.743 398.424 603.975 399.704C603.548 400.429 603.207 401.005 602.951 401.432C602.695 401.859 602.546 402.115 602.503 402.2C602.034 403.224 601.799 404.12 601.799 404.888C601.799 405.571 601.97 405.955 602.311 406.04L602.759 406.104C603.612 406.104 604.572 405.528 605.639 404.376C606.706 403.181 607.623 401.752 608.391 400.088C608.263 398.168 608.476 396.653 609.031 395.544C609.543 394.605 610.119 394.136 610.759 394.136C611.484 394.136 611.847 394.605 611.847 395.544C611.847 395.672 611.804 395.907 611.719 396.248C611.42 397.571 610.652 398.744 609.415 399.768C609.458 400.707 609.842 401.581 610.567 402.392C611.292 403.16 612.167 403.544 613.191 403.544C614.343 403.544 615.452 402.968 616.519 401.816C616.86 401.475 617.052 401.411 617.095 401.624C617.138 401.667 617.159 401.752 617.159 401.88C617.159 401.965 617.095 402.115 616.967 402.328C615.858 403.565 614.578 404.184 613.127 404.184C612.103 404.184 611.186 403.885 610.375 403.288C609.564 402.648 609.01 401.88 608.711 400.984C607.858 402.904 606.77 404.483 605.447 405.72C604.167 406.915 603.036 407.427 602.055 407.256ZM620.201 407.576C617.726 407.576 616.489 406.211 616.489 403.48C616.489 402.541 616.83 401.368 617.513 399.96C618.196 398.509 619.028 397.315 620.009 396.376C621.204 395.267 622.292 394.712 623.273 394.712C624.596 394.712 625.257 395.373 625.257 396.696C625.257 397.549 624.916 398.403 624.233 399.256C622.953 400.792 621.161 401.837 618.857 402.392C618.814 402.691 618.772 402.968 618.729 403.224C618.729 403.437 618.729 403.651 618.729 403.864C618.729 405.656 619.561 406.552 621.225 406.552C622.548 406.552 624.212 405.997 626.217 404.888C627.07 404.419 627.838 403.928 628.521 403.416C629.204 402.904 629.78 402.413 630.249 401.944C630.761 401.347 631.017 401.304 631.017 401.816C631.017 402.029 630.932 402.221 630.761 402.392C630.292 402.947 629.673 403.523 628.905 404.12C628.18 404.675 627.284 405.229 626.217 405.784C623.956 406.979 621.95 407.576 620.201 407.576ZM619.113 401.688C621.204 401.005 622.633 399.981 623.401 398.616C623.913 397.763 624.169 397.037 624.169 396.44C624.169 395.971 624.02 395.736 623.721 395.736C623.38 395.736 622.91 396.056 622.313 396.696C621.716 397.293 621.118 398.04 620.521 398.936C619.966 399.832 619.497 400.749 619.113 401.688ZM639.333 408.024C637.413 408.024 636.453 406.979 636.453 404.888C636.453 403.437 637.072 401.581 638.309 399.32C637.669 399.405 637.05 399.192 636.453 398.68C635.898 398.168 635.621 397.571 635.621 396.888C634.512 398.979 632.848 400.941 630.629 402.776C630.458 402.947 630.245 403.032 629.989 403.032C629.818 403.032 629.733 402.968 629.733 402.84C629.733 402.669 629.861 402.499 630.117 402.328C632.037 400.579 633.68 398.424 635.045 395.864L634.917 395.224C634.874 395.011 634.832 394.819 634.789 394.648C634.789 394.435 634.789 394.243 634.789 394.072C634.789 393.048 635.066 392.237 635.621 391.64C636.133 391.085 636.709 390.808 637.349 390.808C638.16 390.808 638.565 391.235 638.565 392.088C638.565 393.155 637.861 394.52 636.453 396.184V396.312C636.453 397.037 636.88 397.4 637.733 397.4C638.074 397.4 638.48 397.315 638.949 397.144C639.461 397.016 639.824 396.952 640.037 396.952C640.805 396.952 641.189 397.357 641.189 398.168C641.189 398.467 641.082 398.787 640.869 399.128C640.57 399.555 640.186 400.323 639.717 401.432C639.162 402.627 638.842 403.501 638.757 404.056C638.714 404.227 638.672 404.397 638.629 404.568C638.629 404.739 638.629 404.909 638.629 405.08C638.629 406.189 639.141 406.744 640.165 406.744C641.445 406.744 643.066 406.168 645.029 405.016C645.882 404.547 646.65 404.056 647.333 403.544C648.016 403.032 648.634 402.499 649.189 401.944C649.445 401.688 649.658 401.56 649.829 401.56C649.957 401.56 650.021 401.645 650.021 401.816C650.021 402.029 649.893 402.264 649.637 402.52C646.65 405.08 644.133 406.723 642.085 407.448C641.018 407.832 640.101 408.024 639.333 408.024ZM654.627 408.216C654.072 408.216 653.603 408.045 653.219 407.704C652.878 407.363 652.707 406.936 652.707 406.424C652.707 405.912 652.878 405.485 653.219 405.144C653.603 404.76 654.072 404.568 654.627 404.568C655.139 404.568 655.587 404.76 655.971 405.144C656.355 405.485 656.547 405.912 656.547 406.424C656.547 406.936 656.355 407.363 655.971 407.704C655.587 408.045 655.139 408.216 654.627 408.216Z" fill="black"/>
</g>
</svg>
